<svg xmlns="http://www.w3.org/2000/svg" viewBox="0 0 1000 950">
  <!-- Fundo do Canvas -->
  <rect width="1000" height="950" fill="#f5f5f5"/>

  <!-- Cabeçalho -->
  <rect x="50" y="20" width="900" height="110" rx="10" ry="10" fill="#022859"/>
  <text x="500" y="65" font-family="Segoe UI, sans-serif" font-size="34" font-weight="bold" fill="white" text-anchor="middle">Canvas: Diagnóstico Estratégico</text>
  <text x="500" y="95" font-family="Segoe UI, sans-serif" font-size="16" fill="white" text-anchor="middle">Estratégia de marketing personalizada para advogados</text>
  <text x="500" y="118" font-family="Segoe UI, sans-serif" font-size="13" fill="#a9c2e0" text-anchor="middle">Conforme as regras éticas da OAB</text>

  <!-- ===================== ROW 1 ===================== -->

  <!-- Bloco Mercado Jurídico -->
  <rect x="50" y="150" width="280" height="350" rx="8" ry="8" fill="white" stroke="#3498db" stroke-width="2"/>
  <rect x="60" y="160" width="260" height="45" rx="6" ry="6" fill="#3498db"/>
  <text x="190" y="189" font-family="Segoe UI, sans-serif" font-size="21" font-weight="bold" fill="white" text-anchor="middle">Mercado Jurídico</text>
  <text x="190" y="222" font-family="Segoe UI, sans-serif" font-size="14" fill="#666" text-anchor="middle">Análise do Ambiente Jurídico</text>

  <rect x="70" y="245" width="240" height="70" rx="6" ry="6" fill="#eaeaea" stroke="#aaa" stroke-width="1" stroke-dasharray="5,5"/>
  <text x="85" y="268" font-family="Segoe UI, sans-serif" font-size="14" font-weight="bold" fill="#333">🏆 Concorrência</text>
  <text x="85" y="285" font-family="Segoe UI, sans-serif" font-size="11.5" fill="#666">Escritórios da região, especialistas,</text>
  <text x="85" y="300" font-family="Segoe UI, sans-serif" font-size="11.5" fill="#666">diferencial competitivo</text>

  <rect x="70" y="325" width="240" height="70" rx="6" ry="6" fill="#eaeaea" stroke="#aaa" stroke-width="1" stroke-dasharray="5,5"/>
  <text x="85" y="348" font-family="Segoe UI, sans-serif" font-size="14" font-weight="bold" fill="#333">📈 Tendências</text>
  <text x="85" y="365" font-family="Segoe UI, sans-serif" font-size="11.5" fill="#666">Mudanças legislativas, jurisprudência,</text>
  <text x="85" y="380" font-family="Segoe UI, sans-serif" font-size="11.5" fill="#666">direito digital</text>

  <rect x="70" y="405" width="240" height="70" rx="6" ry="6" fill="#fdebd0" stroke="#e67e22" stroke-width="1.5"/>
  <text x="85" y="428" font-family="Segoe UI, sans-serif" font-size="14" font-weight="bold" fill="#7d4a0f">⚠️ Ameaças e Oportunidades</text>
  <text x="85" y="445" font-family="Segoe UI, sans-serif" font-size="11.5" fill="#8a5a20">Riscos do mercado e oportunidades</text>
  <text x="85" y="460" font-family="Segoe UI, sans-serif" font-size="11.5" fill="#8a5a20">de crescimento</text>

  <!-- Bloco Objetivos (linha do tempo) -->
  <rect x="360" y="150" width="280" height="350" rx="8" ry="8" fill="white" stroke="#e74c3c" stroke-width="2"/>
  <rect x="370" y="160" width="260" height="45" rx="6" ry="6" fill="#e74c3c"/>
  <text x="500" y="189" font-family="Segoe UI, sans-serif" font-size="21" font-weight="bold" fill="white" text-anchor="middle">Objetivos</text>
  <text x="500" y="222" font-family="Segoe UI, sans-serif" font-size="14" fill="#666" text-anchor="middle">Onde Quero Chegar</text>

  <rect x="380" y="245" width="240" height="70" rx="6" ry="6" fill="#eaeaea" stroke="#aaa" stroke-width="1" stroke-dasharray="5,5"/>
  <text x="395" y="268" font-family="Segoe UI, sans-serif" font-size="14" font-weight="bold" fill="#333">🎯 Próximo Trimestre</text>
  <text x="395" y="285" font-family="Segoe UI, sans-serif" font-size="11.5" fill="#666">Metas de curto prazo,</text>
  <text x="395" y="300" font-family="Segoe UI, sans-serif" font-size="11.5" fill="#666">ações imediatas</text>

  <rect x="380" y="325" width="240" height="70" rx="6" ry="6" fill="#eaeaea" stroke="#aaa" stroke-width="1" stroke-dasharray="5,5"/>
  <text x="395" y="348" font-family="Segoe UI, sans-serif" font-size="14" font-weight="bold" fill="#333">📅 1 Ano</text>
  <text x="395" y="365" font-family="Segoe UI, sans-serif" font-size="11.5" fill="#666">Onde quero estar</text>
  <text x="395" y="380" font-family="Segoe UI, sans-serif" font-size="11.5" fill="#666">em 1 ano</text>

  <rect x="380" y="405" width="240" height="70" rx="6" ry="6" fill="#eaeaea" stroke="#aaa" stroke-width="1" stroke-dasharray="5,5"/>
  <text x="395" y="428" font-family="Segoe UI, sans-serif" font-size="14" font-weight="bold" fill="#333">🚀 2 Anos</text>
  <text x="395" y="445" font-family="Segoe UI, sans-serif" font-size="11.5" fill="#666">Visão de médio prazo,</text>
  <text x="395" y="460" font-family="Segoe UI, sans-serif" font-size="11.5" fill="#666">onde vou estar em 2 anos</text>

  <!-- Bloco Forças e Fraquezas -->
  <rect x="670" y="150" width="280" height="350" rx="8" ry="8" fill="white" stroke="#2ecc71" stroke-width="2"/>
  <rect x="680" y="160" width="260" height="45" rx="6" ry="6" fill="#2ecc71"/>
  <text x="810" y="189" font-family="Segoe UI, sans-serif" font-size="19" font-weight="bold" fill="white" text-anchor="middle">Forças e Fraquezas</text>
  <text x="810" y="222" font-family="Segoe UI, sans-serif" font-size="14" fill="#666" text-anchor="middle">Diagnóstico Interno</text>

  <rect x="680" y="245" width="125" height="105" rx="6" ry="6" fill="#eaeaea" stroke="#aaa" stroke-width="1" stroke-dasharray="5,5"/>
  <text x="690" y="266" font-family="Segoe UI, sans-serif" font-size="11.5" font-weight="bold" fill="#333">💪 Pontos Fortes</text>
  <text x="690" y="283" font-family="Segoe UI, sans-serif" font-size="10" fill="#666">Diferenciais e</text>
  <text x="690" y="296" font-family="Segoe UI, sans-serif" font-size="10" fill="#666">vantagens do</text>
  <text x="690" y="309" font-family="Segoe UI, sans-serif" font-size="10" fill="#666">escritório</text>

  <rect x="815" y="245" width="125" height="105" rx="6" ry="6" fill="#eaeaea" stroke="#aaa" stroke-width="1" stroke-dasharray="5,5"/>
  <text x="825" y="266" font-family="Segoe UI, sans-serif" font-size="11.5" font-weight="bold" fill="#333">⚡ Pontos Fracos</text>
  <text x="825" y="283" font-family="Segoe UI, sans-serif" font-size="10" fill="#666">Limitações e</text>
  <text x="825" y="296" font-family="Segoe UI, sans-serif" font-size="10" fill="#666">pontos a</text>
  <text x="825" y="309" font-family="Segoe UI, sans-serif" font-size="10" fill="#666">melhorar</text>

  <rect x="680" y="360" width="125" height="105" rx="6" ry="6" fill="#eaeaea" stroke="#aaa" stroke-width="1" stroke-dasharray="5,5"/>
  <text x="690" y="381" font-family="Segoe UI, sans-serif" font-size="11" font-weight="bold" fill="#333">🔥 Maximizar</text>
  <text x="690" y="396" font-family="Segoe UI, sans-serif" font-size="11" font-weight="bold" fill="#333">Fortalezas</text>
  <text x="690" y="413" font-family="Segoe UI, sans-serif" font-size="10" fill="#666">Ação para</text>
  <text x="690" y="426" font-family="Segoe UI, sans-serif" font-size="10" fill="#666">potencializar</text>
  <text x="690" y="439" font-family="Segoe UI, sans-serif" font-size="10" fill="#666">pontos fortes</text>

  <rect x="815" y="360" width="125" height="105" rx="6" ry="6" fill="#eaeaea" stroke="#aaa" stroke-width="1" stroke-dasharray="5,5"/>
  <text x="825" y="381" font-family="Segoe UI, sans-serif" font-size="11" font-weight="bold" fill="#333">🛠️ Minimizar</text>
  <text x="825" y="396" font-family="Segoe UI, sans-serif" font-size="11" font-weight="bold" fill="#333">Fraquezas</text>
  <text x="825" y="413" font-family="Segoe UI, sans-serif" font-size="10" fill="#666">Ação para</text>
  <text x="825" y="426" font-family="Segoe UI, sans-serif" font-size="10" fill="#666">reduzir pontos</text>
  <text x="825" y="439" font-family="Segoe UI, sans-serif" font-size="10" fill="#666">fracos</text>

  <!-- ===================== ROW 2 ===================== -->

  <!-- Mix de Marketing Hoje -->
  <rect x="50" y="520" width="900" height="180" rx="8" ry="8" fill="white" stroke="#8e44ad" stroke-width="2"/>
  <rect x="60" y="530" width="880" height="45" rx="6" ry="6" fill="#8e44ad"/>
  <text x="500" y="562" font-family="Segoe UI, sans-serif" font-size="22" font-weight="bold" fill="white" text-anchor="middle">Mix de Marketing Hoje</text>
  <text x="500" y="595" font-family="Segoe UI, sans-serif" font-size="14" fill="#666" text-anchor="middle">Onde Estamos Agora</text>

  <rect x="70" y="615" width="205" height="70" rx="6" ry="6" fill="#eaeaea" stroke="#aaa" stroke-width="1" stroke-dasharray="5,5"/>
  <text x="80" y="638" font-family="Segoe UI, sans-serif" font-size="12.5" font-weight="bold" fill="#333">⚖️ Produtos/Serviços</text>
  <text x="80" y="655" font-family="Segoe UI, sans-serif" font-size="10.5" fill="#666">Áreas de atuação</text>
  <text x="80" y="668" font-family="Segoe UI, sans-serif" font-size="10.5" fill="#666">oferecidas hoje</text>

  <rect x="290" y="615" width="205" height="70" rx="6" ry="6" fill="#eaeaea" stroke="#aaa" stroke-width="1" stroke-dasharray="5,5"/>
  <text x="300" y="638" font-family="Segoe UI, sans-serif" font-size="12.5" font-weight="bold" fill="#333">💵 Preço</text>
  <text x="300" y="655" font-family="Segoe UI, sans-serif" font-size="10.5" fill="#666">Valor médio dos</text>
  <text x="300" y="668" font-family="Segoe UI, sans-serif" font-size="10.5" fill="#666">serviços hoje</text>

  <rect x="510" y="615" width="205" height="70" rx="6" ry="6" fill="#eaeaea" stroke="#aaa" stroke-width="1" stroke-dasharray="5,5"/>
  <text x="520" y="638" font-family="Segoe UI, sans-serif" font-size="12.5" font-weight="bold" fill="#333">📣 Promoção</text>
  <text x="520" y="655" font-family="Segoe UI, sans-serif" font-size="10.5" fill="#666">Como o escritório</text>
  <text x="520" y="668" font-family="Segoe UI, sans-serif" font-size="10.5" fill="#666">se divulga hoje</text>

  <rect x="730" y="615" width="205" height="70" rx="6" ry="6" fill="#eaeaea" stroke="#aaa" stroke-width="1" stroke-dasharray="5,5"/>
  <text x="740" y="638" font-family="Segoe UI, sans-serif" font-size="12.5" font-weight="bold" fill="#333">📡 Canais</text>
  <text x="740" y="655" font-family="Segoe UI, sans-serif" font-size="10.5" fill="#666">Onde capta</text>
  <text x="740" y="668" font-family="Segoe UI, sans-serif" font-size="10.5" fill="#666">clientes hoje</text>

  <!-- ===================== ROW 3 ===================== -->

  <!-- Mix de Marketing em 1 Ano -->
  <rect x="50" y="720" width="900" height="180" rx="8" ry="8" fill="white" stroke="#16a085" stroke-width="2"/>
  <rect x="60" y="730" width="880" height="45" rx="6" ry="6" fill="#16a085"/>
  <text x="500" y="762" font-family="Segoe UI, sans-serif" font-size="22" font-weight="bold" fill="white" text-anchor="middle">Mix de Marketing em 1 Ano</text>
  <text x="500" y="795" font-family="Segoe UI, sans-serif" font-size="14" fill="#666" text-anchor="middle">Onde Queremos Chegar</text>

  <rect x="70" y="815" width="205" height="70" rx="6" ry="6" fill="#eaeaea" stroke="#aaa" stroke-width="1" stroke-dasharray="5,5"/>
  <text x="80" y="838" font-family="Segoe UI, sans-serif" font-size="12.5" font-weight="bold" fill="#333">⚖️ Produtos/Serviços</text>
  <text x="80" y="855" font-family="Segoe UI, sans-serif" font-size="10.5" fill="#666">Novas áreas e</text>
  <text x="80" y="868" font-family="Segoe UI, sans-serif" font-size="10.5" fill="#666">especializações</text>

  <rect x="290" y="815" width="205" height="70" rx="6" ry="6" fill="#eaeaea" stroke="#aaa" stroke-width="1" stroke-dasharray="5,5"/>
  <text x="300" y="838" font-family="Segoe UI, sans-serif" font-size="12.5" font-weight="bold" fill="#333">💵 Preço</text>
  <text x="300" y="855" font-family="Segoe UI, sans-serif" font-size="10.5" fill="#666">Valor médio</text>
  <text x="300" y="868" font-family="Segoe UI, sans-serif" font-size="10.5" fill="#666">desejado</text>

  <rect x="510" y="815" width="205" height="70" rx="6" ry="6" fill="#eaeaea" stroke="#aaa" stroke-width="1" stroke-dasharray="5,5"/>
  <text x="520" y="838" font-family="Segoe UI, sans-serif" font-size="12.5" font-weight="bold" fill="#333">📣 Promoção</text>
  <text x="520" y="855" font-family="Segoe UI, sans-serif" font-size="10.5" fill="#666">Estratégia de</text>
  <text x="520" y="868" font-family="Segoe UI, sans-serif" font-size="10.5" fill="#666">divulgação futura</text>

  <rect x="730" y="815" width="205" height="70" rx="6" ry="6" fill="#eaeaea" stroke="#aaa" stroke-width="1" stroke-dasharray="5,5"/>
  <text x="740" y="838" font-family="Segoe UI, sans-serif" font-size="12.5" font-weight="bold" fill="#333">📡 Canais</text>
  <text x="740" y="855" font-family="Segoe UI, sans-serif" font-size="10.5" fill="#666">Novos canais</text>
  <text x="740" y="868" font-family="Segoe UI, sans-serif" font-size="10.5" fill="#666">a explorar</text>
</svg>